<svg id="Capa_1" enable-background="new 0 0 512 512" height="512" viewBox="0 0 512 512" width="512" xmlns="http://www.w3.org/2000/svg"><g><path d="m467 138.496v37.5h-95.388v15h40.193v29.851h-40.193v-29.851h-15v29.851h-40.194v15h-15v29.851h-40.193v-29.851h-15v29.851h-40.195v-29.851h-14.999v-15h-40.194v-29.851h-15v29.851h-40.193v-29.851h40.193v-15h-90.837v-37.5h-45v298.504h15v-283.504h15l.001 343.504h-15.001v-45h-15v60h45.001v-141.603h421.999v66.603h15v-283.504h15v343.504h-15v-45h-15v60h45v-373.504zm-40.194 52.499h40.194v29.851h-40.194zm40.194 44.851v29.85h-40.194v-29.85zm-55.194 0v29.85h-40.193v-29.85zm-366.806 44.85h35.643v29.851h-35.643zm50.644 0h40.193v29.851h-40.193zm55.193 0h40.193v29.851h-40.193zm-15 44.85v29.85h-40.193v-29.85zm15 0h40.193v29.85h-40.193zm55.193 0h40.194v29.85h-40.194zm55.195 0h40.193v29.85h-40.193zm55.193 0h40.194v29.85h-40.194zm0-15v-29.851h40.194v29.851zm55.194 15h40.193v29.85h-40.193zm0-15v-29.851h40.193v29.851zm-55.194-74.7h40.194v29.85h-40.194zm-15 44.85v29.851h-40.193v-29.851zm-55.193 0v29.851h-40.195v-29.851zm-55.195-44.85v29.85h-40.193v-29.85zm-55.193 0v29.85h-40.193v-29.85zm-55.193-44.851v29.851h-20.644v15h20.644v29.85h-35.644v-74.701zm-35.644 134.551h35.643v29.85h-35.643zm381.806 29.85v-29.85h25.194v-15h-25.194v-29.851h40.194v74.701z"/><path d="m256 210.001c25.058 0 49.321-8.975 68.321-25.271l-9.766-11.386c-11.499 9.863-25.254 16.579-39.905 19.684-22.051-21.029-40.883-48.483-55.506-80.527h126.533c-1.572 18.777-9.002 36.676-21.334 51.055l11.385 9.765c16.297-19.001 25.272-43.265 25.272-68.32 0-57.898-47.104-105.001-105-105.001-57.897 0-105.001 47.103-105.001 105s47.104 105.001 105.001 105.001zm-59.344-112.501h-30.342c1.374-16.579 7.258-31.897 16.424-44.719 3.842 15.514 8.501 30.466 13.918 44.719zm-1.738-58.534c13.136-12.16 29.893-20.457 48.451-23.075-14.084 19.855-26.098 42.47-35.886 67.558-4.97-14.189-9.173-29.064-12.565-44.483zm2.563 73.534c-4.793 15.927-8.628 32.33-11.479 49.003-11.026-13.632-18.157-30.534-19.688-49.003zm58.001 82.494c-21.358-.121-40.976-7.718-56.367-20.303 2.357-16.411 5.696-32.594 9.996-48.34 12.821 26.316 28.457 49.524 46.371 68.643zm90.204-97.494h-127.457c11.387-31.556 26.276-59.165 44.337-82.26 44.091 3.196 79.474 38.293 83.12 82.26z"/><path d="m310.906 80.756 13.719-6.065c-5.086-11.504-13.075-21.637-23.103-29.303l-9.109 11.916c8.029 6.138 14.424 14.248 18.493 23.452z"/><path d="m280.997 50.435 6.256-13.633c-5.055-2.319-10.374-4.072-15.811-5.21l-3.072 14.682c4.342.909 8.59 2.309 12.627 4.161z"/></g></svg>